<svg xmlns="http://www.w3.org/2000/svg" width="100%" height="100%" viewBox="0 0 76 76"><defs><linearGradient id="a" x1="49.991%" x2="49.991%" y1="99.982%" y2="0%"><stop offset="0%" stop-color="#4780E8"></stop><stop offset="100%" stop-color="#11C8F6"></stop></linearGradient></defs><g fill="none" fill-rule="nonzero"><path fill="url(#a)" d="M60.556 75.878H15.322C6.868 75.878 0 68.97 0 60.556V15.322C0 6.868 6.868 0 15.322 0h45.234c8.413 0 15.322 6.868 15.322 15.322v45.234c0 8.413-6.909 15.322-15.322 15.322z"></path><path fill="#FFF" d="M40.723 43.812h-27.23a3.452 3.452 0 0 0-3.454 3.454 3.452 3.452 0 0 0 3.454 3.455h31.375s1.626-1.626-.121-4.268c-1.789-2.641-4.024-2.641-4.024-2.641z"></path><path fill="#FFF" d="M39.341 14.753L22.434 44.015c-.935 1.666-.406 3.78 1.26 4.714 1.666.935 3.78.407 4.715-1.26l16.907-29.262c.934-1.666.406-3.78-1.26-4.714a3.41 3.41 0 0 0-4.715 1.26zM60.028 56.573L42.674 26.458s-2.52 1.95-2.52 5.812c0 3.86 1.585 6.462 1.585 6.462l12.314 21.336a3.41 3.41 0 0 0 4.715 1.26 3.539 3.539 0 0 0 1.26-4.755z"></path><path fill="#FFF" d="M61.775 43.812h-9.632a3.452 3.452 0 0 0-3.454 3.454 3.452 3.452 0 0 0 3.454 3.455h9.632a3.452 3.452 0 0 0 3.455-3.455c0-1.87-1.544-3.454-3.455-3.454zM39.544 21.093l-3.657-6.38c-.935-1.626-3.09-2.195-4.715-1.26-1.625.934-2.194 3.088-1.26 4.714l3.658 6.38c.935 1.626 3.089 2.195 4.714 1.26 1.626-.934 2.195-3.048 1.26-4.714zM15.2 56.533l2.195-3.78s.528-1.057 2.6-1.057c2.195 0 4.309 1.83 4.471 2.52l-3.292 5.771a3.41 3.41 0 0 1-4.714 1.26c-1.666-.935-2.195-3.048-1.26-4.714z"></path></g></svg>