<svg width="100%" height="100%" viewBox="0 0 75 79" version="1.1" xmlns="http://www.w3.org/2000/svg"><g stroke="none" stroke-width="1" fill="none" fill-rule="evenodd"><g transform="translate(-1117.000000, -810.000000)"><g transform="translate(0.000000, 629.000000)"><g transform="translate(1054.000000, 182.000000)"><g transform="translate(65.000000, 0.500000)"><path d="M42.0082575,14.0059867 C42.0027671,14.1699823 42,14.334668 42,14.5 C42,22.5081289 48.4918711,29 56.5,29 C58.2494005,29 59.9264425,28.6901965 61.4792554,28.1224602 L62,28.5 L62,75 C62,75.5522847 61.5522847,76 61,76 L1,76 C0.44771525,76 6.76353751e-17,75.5522847 0,75 L0,15 C-6.76353751e-17,14.4477153 0.44771525,14 1,14 L42,14 L42.0082575,14.0059867 Z" stroke="#AF5AFF" stroke-width="3" fill-rule="nonzero"></path><g transform="translate(42.000000, 0.000000)"><circle stroke="#AF5AFF" stroke-width="3" fill-rule="nonzero" cx="14.5" cy="14.5" r="14.5"></circle><polygon fill="#AF5AFF" points="12.5416609 15.7970605 8.2830367 11.3693654 5.81481481 13.9320185 12.5416609 20.9259259 22.1851852 10.8995457 19.7169633 8.33333333"></polygon></g><rect stroke="#AF5AFF" stroke-width="3" fill-rule="nonzero" x="25.5" y="23.5" width="11" height="21" rx="2"></rect><rect stroke="#AF5AFF" stroke-width="3" fill-rule="nonzero" x="25.5" y="55" width="11" height="21" rx="2"></rect><g transform="translate(6.000000, 26.000000)" fill="#AF5AFF" fill-rule="nonzero"><rect transform="translate(6.500000, 11.500000) scale(1, -1) translate(-6.500000, -11.500000) " x="0" y="10" width="13" height="3" rx="1"></rect><rect transform="translate(6.500000, 31.500000) scale(1, -1) translate(-6.500000, -31.500000) " x="0" y="30" width="13" height="3" rx="1"></rect></g><g transform="translate(43.000000, 36.000000)" fill="#AF5AFF" fill-rule="nonzero"><rect transform="translate(6.500000, 1.500000) scale(1, -1) translate(-6.500000, -1.500000) " x="0" y="0" width="13" height="3" rx="1"></rect><rect transform="translate(6.500000, 21.500000) scale(1, -1) translate(-6.500000, -21.500000) " x="0" y="20" width="13" height="3" rx="1"></rect></g></g></g></g></g></g></svg>