<svg width="100%" height="100%" viewBox="0 0 61 71" version="1.1" xmlns="http://www.w3.org/2000/svg"><g stroke="none" stroke-width="1" fill="none" fill-rule="evenodd"><g transform="translate(-528.000000, -819.000000)" fill="#AF5AFF"><g transform="translate(0.000000, 629.000000)"><g transform="translate(446.000000, 190.000000)"><g transform="translate(82.000000, 0.500000)"><path d="M30.4661312,46.3576324 C29.8095953,46.3576324 29.1743756,46.1222268 28.6769999,45.6939588 L0.950439253,21.798871 C0.0764791889,21.0444386 -0.227630492,19.86032 0.175954318,18.778305 C0.578118055,17.6977082 1.58565901,17 2.74099158,17 L58.1912707,17 C59.3466033,17 60.3541443,17.6977082 60.756308,18.7797232 C61.1598928,19.86032 60.8557831,21.0444386 59.980402,21.798871 L32.2552624,45.6939588 C31.7578868,46.1222268 31.122667,46.3576324 30.4661312,46.3576324 Z M3.02236409,19.8362122 L30.4661312,43.4888038 L57.9098982,19.8362122 L3.02236409,19.8362122 Z" id="Shape" fill-rule="nonzero"></path><polygon points="29 45 31.8421465 45 31.8421465 70 29 70"></polygon><polygon points="11 27 50.7900517 27 50.7900517 29.8362122 11 29.8362122"></polygon><path d="M37.4204257,29.7803715 C37.1603693,29.7803715 36.8988918,29.7094662 36.6629936,29.5605651 C35.9993524,29.1422238 35.8004021,28.2672523 36.2196187,27.6049968 L53.272498,0.660980926 C53.6931357,-0.00127462112 54.5699379,-0.198391369 55.2335792,0.218531824 C55.8972204,0.636873122 56.0961706,1.51326269 55.676954,2.17551824 L38.6240747,29.1195341 C38.3526497,29.546384 37.892222,29.7803715 37.4204257,29.7803715" id="Path"></path><rect fill-rule="nonzero" transform="translate(30.500000, 68.500000) scale(1, -1) translate(-30.500000, -68.500000) " x="20" y="67" width="21" height="3" rx="1"></rect></g></g></g></g></g></svg>