<svg xmlns="http://www.w3.org/2000/svg" width="100%" height="100%" viewBox="0 -4 137 157"><defs><linearGradient id="gogole-a" x1="91.683%" x2="-38.413%" y1="4.677%" y2="71.806%"><stop offset="0%" stop-color="#00A1FF"></stop><stop offset="26.01%" stop-color="#00BEFF"></stop><stop offset="51.22%" stop-color="#00D2FF"></stop><stop offset="76.04%" stop-color="#00DFFF"></stop><stop offset="100%" stop-color="#00E3FF"></stop></linearGradient><linearGradient id="gogole-b" x1="107.998%" x2="-130.395%" y1="49.535%" y2="49.535%"><stop offset="0%" stop-color="#FFE000"></stop><stop offset="40.87%" stop-color="#FFBD00"></stop><stop offset="77.54%" stop-color="#FFA500"></stop><stop offset="100%" stop-color="#FF9C00"></stop></linearGradient><linearGradient id="gogole-c" x1="86.472%" x2="-50.626%" y1="17.638%" y2="195.596%"><stop offset="0%" stop-color="#FF3A44"></stop><stop offset="100%" stop-color="#C31162"></stop></linearGradient><linearGradient id="gogole-d" x1="-19.128%" x2="42.092%" y1="-53.645%" y2="24.959%"><stop offset="0%" stop-color="#32A071"></stop><stop offset="6.85%" stop-color="#2DA771"></stop><stop offset="47.62%" stop-color="#15CF74"></stop><stop offset="80.09%" stop-color="#06E775"></stop><stop offset="100%" stop-color="#00F076"></stop></linearGradient></defs><g fill="none" fill-rule="evenodd"><path fill="url(#gogole-a)" d="M2.746 6.39C1.02 8.181 0 10.972 0 14.592v129.133c0 3.62 1.02 6.406 2.746 8.204l.433.42 73.483-72.335v-1.71L3.18 5.963l-.433.426z" transform="translate(0 -4)"></path><path fill="url(#gogole-b)" d="M76.662 78.304v1.711l24.489 24.122.563-.31 29.014-16.238c8.291-4.63 8.291-12.222 0-16.858l-29.014-16.233-.557-.31-24.495 24.116z" transform="translate(0 -4)"></path><path fill="url(#gogole-c)" d="M2.746 151.93c2.728 2.85 7.242 3.2 12.324.362l86.644-48.465-25.052-24.664L2.746 151.93z" transform="translate(0 -4)"></path><path fill="url(#gogole-d)" d="M2.746 6.39l73.916 72.773 25.052-24.67L15.07 6.026c-2.384-1.331-4.644-1.962-6.648-1.962-2.272 0-4.229.812-5.676 2.324" transform="translate(0 -4)"></path></g></svg>